<?xml version="1.0" standalone="no"?>
<!DOCTYPE svg PUBLIC "-//W3C//DTD SVG 20010904//EN"
 "http://www.w3.org/TR/2001/REC-SVG-20010904/DTD/svg10.dtd">
<svg version="1.0" xmlns="http://www.w3.org/2000/svg"
 width="499.000000pt" height="499.000000pt" viewBox="0 0 499.000000 499.000000"
 preserveAspectRatio="xMidYMid meet">
<metadata>
Created by potrace 1.14, written by Peter Selinger 2001-2017
</metadata>
<g transform="translate(0.000000,499.000000) scale(0.100000,-0.100000)"
fill="#000000" stroke="none">
<path d="M4735 4084 c-15 -8 -64 -51 -110 -96 -120 -121 -319 -306 -415 -386
-14 -11 -36 -31 -50 -43 -14 -12 -50 -40 -80 -63 -30 -22 -57 -43 -60 -46 -3
-3 -27 -22 -55 -42 -47 -34 -130 -122 -130 -137 0 -4 -8 -16 -18 -25 -11 -11
-17 -29 -15 -45 5 -43 54 -33 151 31 45 30 114 75 152 99 39 24 75 48 81 54 7
5 24 19 40 30 41 30 134 105 178 145 22 19 51 45 65 58 203 179 381 355 381
377 0 9 -7 32 -16 50 -20 43 -61 59 -99 39z"/>
<path d="M1043 3945 c-66 -20 -129 -61 -196 -128 -147 -146 -285 -326 -399
-522 -19 -33 -57 -96 -85 -140 -92 -147 -188 -371 -208 -485 -16 -95 -11 -134
22 -151 30 -16 41 -5 81 86 73 168 253 504 275 513 4 2 7 10 7 18 0 8 4 14 8
14 4 0 13 12 20 28 17 40 53 97 63 100 5 2 9 9 9 15 0 7 9 23 20 37 11 14 51
67 88 117 80 110 222 269 273 306 19 14 49 27 65 29 l29 3 -1 -95 c-1 -119 -9
-163 -46 -270 -37 -104 -118 -302 -129 -314 -5 -6 -18 12 -30 40 -26 59 -107
167 -119 159 -5 -3 -14 3 -20 14 -11 21 -46 25 -68 7 -15 -11 -10 -39 18 -101
48 -107 60 -137 91 -227 l33 -97 -28 -59 c-25 -51 -45 -77 -136 -166 -31 -30
-1 -96 43 -96 14 0 17 -4 11 -17 -11 -27 -8 -64 8 -79 12 -12 19 -9 48 19 19
18 57 59 84 90 51 61 63 67 72 40 3 -10 28 -76 55 -146 27 -71 49 -135 49
-143 0 -8 5 -14 10 -14 6 0 10 -9 10 -20 0 -11 5 -28 10 -38 6 -9 34 -78 64
-152 71 -176 81 -200 161 -363 79 -162 93 -174 157 -140 l39 22 -18 -29 c-10
-17 -51 -75 -90 -130 -40 -55 -73 -103 -73 -106 0 -4 -15 -27 -33 -53 -19 -25
-64 -88 -101 -140 -105 -144 -113 -177 -52 -206 76 -36 93 -28 172 88 177 260
271 391 283 395 8 3 11 1 8 -4 -6 -11 12 -35 38 -50 11 -6 30 -37 42 -68 47
-122 142 -196 250 -196 52 0 164 31 193 54 8 7 27 18 41 25 83 41 211 210 296
391 43 93 107 269 137 380 64 242 68 390 12 499 -10 18 -14 36 -9 40 4 4 35
30 68 58 115 96 221 153 286 153 32 0 62 -100 62 -210 0 -90 -8 -233 -18 -310
-3 -19 -7 -53 -10 -76 -2 -23 -9 -61 -14 -85 -5 -24 -12 -55 -14 -69 -3 -14
-19 -79 -36 -146 -38 -149 -44 -200 -44 -334 1 -107 5 -152 18 -181 7 -18 48
-26 102 -21 28 3 33 8 40 40 4 20 6 51 5 67 -8 165 0 240 43 410 59 236 83
420 85 660 2 170 -11 231 -70 327 l-30 48 63 31 c34 17 91 48 127 69 113 65
245 93 285 60 50 -41 64 -168 51 -436 -3 -67 -10 -145 -16 -173 -5 -27 -12
-72 -15 -98 -3 -26 -10 -59 -15 -73 -4 -14 -26 -99 -48 -190 -66 -271 -79
-322 -102 -400 -34 -117 -60 -228 -60 -260 0 -24 5 -31 28 -36 15 -3 38 -9 52
-13 14 -4 32 -6 42 -4 19 5 44 53 52 103 3 19 24 100 46 180 46 161 47 165 60
233 5 26 28 117 50 201 76 289 106 576 85 806 -6 69 -7 75 -19 130 -21 91
-102 179 -180 196 -88 19 -237 -18 -339 -86 -78 -51 -177 -136 -177 -154 -1
-6 -8 -20 -18 -31 -13 -17 -28 -21 -70 -20 -109 3 -239 -66 -367 -192 -38 -39
-77 -79 -85 -91 -13 -19 -19 -21 -55 -12 -22 5 -66 7 -98 4 l-58 -7 25 49 c71
143 158 394 182 527 22 121 16 283 -14 351 -69 154 -202 210 -408 171 -73 -14
-228 -69 -254 -90 -8 -7 -46 -29 -85 -50 -38 -21 -103 -60 -144 -88 -89 -60
-347 -267 -414 -332 -27 -26 -51 -45 -53 -42 -3 3 11 45 31 93 44 107 95 249
101 284 2 14 9 48 15 77 13 65 15 203 4 263 -5 25 -9 47 -10 50 0 3 -9 19 -19
36 -35 59 -113 78 -203 49z m1245 -422 c46 -34 56 -68 57 -183 0 -136 -5 -161
-74 -359 -76 -218 -205 -485 -263 -544 -185 -186 -293 -353 -362 -562 -23 -69
-53 -128 -87 -169 -5 -6 -18 -22 -29 -36 l-19 -25 -1 33 c0 21 -31 97 -84 205
-47 95 -115 249 -151 342 -37 94 -71 179 -76 190 -12 27 -129 333 -139 367 -7
22 -4 30 20 50 23 20 169 151 220 198 47 43 153 132 210 175 36 27 67 52 70
56 3 3 37 27 75 52 39 26 79 53 90 62 10 8 25 15 32 15 7 0 13 4 13 9 0 5 8
11 18 14 9 3 42 20 72 38 144 84 344 119 408 72z m166 -1103 c19 -19 21 -32
20 -133 -1 -125 -16 -193 -90 -416 -42 -129 -122 -296 -184 -386 -47 -68 -101
-118 -165 -151 -80 -41 -123 -43 -163 -9 -18 15 -32 31 -32 35 0 5 -5 21 -12
37 -6 15 -13 41 -15 57 -8 53 17 190 52 292 19 55 37 116 40 134 7 39 3 32 70
135 55 85 123 202 167 289 55 110 247 182 312 116z"/>
</g>
</svg>
